<?xml version="1.0" standalone="no"?>
<!DOCTYPE svg PUBLIC "-//W3C//DTD SVG 20010904//EN"
 "http://www.w3.org/TR/2001/REC-SVG-20010904/DTD/svg10.dtd">
<svg version="1.0" xmlns="http://www.w3.org/2000/svg"
 width="512.000000pt" height="512.000000pt" viewBox="0 0 512.000000 512.000000"
 preserveAspectRatio="xMidYMid meet">
<metadata>
Created by potrace 1.14, written by Peter Selinger 2001-2017
</metadata>
<g transform="translate(0.000000,512.000000) scale(0.100000,-0.100000)"
fill="#000000" stroke="none">
<path d="M1080 4983 c0 -4 -127 -8 -283 -9 -291 -1 -303 -2 -360 -29 -36 -17
-138 -108 -137 -122 0 -4 -6 -15 -13 -23 -7 -9 -23 -38 -36 -65 -12 -28 -27
-58 -33 -69 -10 -19 -19 -51 -20 -73 -1 -7 -6 -13 -12 -13 -6 0 -4 -5 4 -10
12 -8 12 -10 1 -10 -8 0 -11 -3 -8 -6 3 -4 2 -15 -3 -25 -6 -10 -12 -39 -14
-66 -3 -26 -5 -48 -6 -48 -5 0 -10 -93 -13 -217 -2 -76 0 -138 3 -138 3 0 5
-17 4 -38 0 -20 2 -41 5 -47 3 -5 6 -25 8 -45 2 -19 6 -46 10 -60 3 -14 7 -28
7 -32 1 -3 4 -9 8 -13 4 -4 4 -13 1 -21 -3 -8 -1 -14 4 -14 5 0 10 -12 11 -26
1 -15 6 -32 11 -38 5 -6 12 -22 16 -35 13 -44 75 -139 117 -182 23 -23 67 -53
97 -68 52 -24 66 -26 199 -26 98 0 135 -3 120 -9 -118 -49 -175 -96 -232 -190
-29 -48 -72 -154 -82 -201 -22 -102 -28 -357 -10 -435 3 -14 9 -38 12 -55 10
-45 56 -159 68 -167 6 -4 7 -8 3 -8 -15 0 58 -92 108 -136 27 -24 58 -44 67
-44 10 0 18 -4 18 -10 0 -5 8 -10 18 -10 9 0 23 -4 31 -9 10 -6 -6 -9 -47 -10
-34 0 -71 -5 -82 -11 -11 -6 -20 -8 -20 -5 0 4 -20 -8 -44 -26 -76 -54 -132
-136 -184 -269 -28 -72 -70 -233 -77 -295 -2 -16 -4 -30 -5 -30 -1 0 -3 -22
-5 -50 -2 -27 -7 -77 -11 -110 -15 -135 -2 -473 22 -595 3 -14 7 -34 9 -45 2
-11 7 -31 10 -45 3 -14 8 -34 10 -45 5 -26 11 -46 18 -65 3 -8 11 -33 17 -55
7 -22 28 -71 47 -109 58 -117 115 -180 194 -216 37 -16 168 -17 2142 -15 1156
1 2110 4 2119 7 28 7 64 40 80 73 13 26 15 49 9 113 -1 16 -72 82 -88 82 -10
0 -8 8 6 28 28 37 53 137 66 261 2 23 7 46 10 51 3 6 1 10 -6 10 -7 0 -8 4 -2
13 5 6 11 41 13 77 6 105 4 498 -3 580 -4 41 -9 102 -11 135 -2 33 -5 60 -6
60 -2 0 -4 9 -5 20 -7 50 -17 89 -27 109 -6 11 -11 22 -10 24 6 8 -1 23 -25
46 -15 15 -23 27 -18 25 6 -1 16 -1 23 0 17 1 83 71 77 81 -3 5 -1 11 4 14 16
10 3 85 -19 117 -12 16 -35 36 -51 44 -16 9 -29 17 -29 18 0 1 28 2 63 1 109
-3 169 37 183 122 7 45 -19 119 -46 129 -8 3 -26 12 -39 19 l-23 14 21 11 c49
27 79 134 88 311 8 187 -31 357 -88 378 -15 6 -18 11 -11 16 7 4 12 4 12 0 0
-19 71 63 80 92 24 71 -13 152 -80 175 -24 9 -118 12 -302 13 -148 0 -268 4
-268 8 0 4 4 8 9 8 13 0 56 40 68 65 6 11 10 42 10 68 0 42 -5 53 -36 86 -20
21 -43 40 -51 43 -13 4 -12 7 3 22 19 19 44 74 50 109 2 12 7 29 10 37 9 22
17 100 23 225 2 61 7 116 9 123 2 6 1 12 -3 12 -4 0 -7 43 -7 95 1 52 -2 95
-5 95 -3 0 -6 28 -7 61 -2 34 -8 68 -14 75 -6 7 -9 17 -6 21 3 4 0 19 -6 33
-5 14 -11 31 -13 38 -4 20 -26 43 -49 52 -20 9 -20 9 1 9 23 1 75 45 91 76 6
11 10 41 10 67 0 39 -6 54 -31 82 -17 19 -42 39 -56 44 -15 6 -702 9 -1691 9
-917 0 -1671 3 -1678 7 -6 4 -11 4 -11 -1z"/>
</g>
</svg>
